<svg xmlns="http://www.w3.org/2000/svg" xmlns:xlink="http://www.w3.org/1999/xlink" width="1366" zoomAndPan="magnify" viewBox="0 0 1024.5 591.000005" height="788" preserveAspectRatio="xMidYMid meet" version="1.0"><defs><clipPath id="fb2e107880"><path d="M 111.769531 42.988281 L 951.167969 42.988281 L 951.167969 547.132812 L 111.769531 547.132812 Z M 111.769531 42.988281 " clip-rule="nonzero"/></clipPath></defs><g clip-path="url(#fb2e107880)"><path fill="#000000" d="M 941.21875 343.109375 C 938.527344 341.386719 934.617188 343.621094 934.757812 346.8125 C 934.882812 349.832031 919.320312 346.328125 916.414062 346.09375 C 903.824219 345.082031 890.753906 348.167969 878.296875 349.578125 C 865.613281 351.011719 847.09375 355.75 839.804688 367.316406 C 836.71875 372.230469 839.765625 375.671875 841.230469 380.195312 C 843.1875 386.246094 838.515625 394.988281 835.914062 400.128906 C 832.429688 407.007812 827.824219 413.3125 822.328125 418.707031 C 815.8125 425.097656 810.363281 424.753906 801.785156 425.136719 C 791.953125 425.578125 782.125 427.28125 772.5 429.253906 C 761.695312 431.464844 750.890625 436.832031 740.054688 438.1875 C 729.472656 439.515625 727.335938 427.550781 719.925781 423.222656 C 714.71875 420.191406 709.511719 417.152344 704.296875 414.113281 C 697.035156 409.878906 691.066406 402.953125 685.515625 396.734375 C 672.46875 382.121094 663.367188 364.398438 658.253906 345.558594 C 648.695312 310.378906 653.890625 267.800781 670.152344 235.070312 C 671.457031 232.453125 669.9375 228.246094 666.449219 228.609375 C 658.121094 229.464844 649.472656 229.164062 641.226562 227.84375 C 634.78125 226.816406 628.535156 224.882812 622.964844 221.453125 C 615.164062 216.671875 614.3125 209.027344 612.007812 200.957031 C 607.03125 183.523438 596.074219 167.796875 584.878906 153.808594 C 580.859375 148.78125 576.753906 144.003906 571.671875 140.046875 C 560.289062 131.160156 546.589844 126.574219 532.246094 125.734375 C 521.925781 125.136719 512.003906 127.6875 502.132812 130.296875 C 495.519531 132.054688 486.257812 135.039062 479.527344 132.148438 C 475.042969 130.222656 472.191406 125.195312 469.5 121.40625 C 464.492188 114.355469 459.117188 107.691406 453.054688 101.511719 C 441.230469 89.460938 424.539062 82.972656 408.53125 78.738281 C 391.5625 74.257812 374.011719 72.578125 356.519531 72.949219 C 325.886719 73.59375 294.886719 72.859375 264.53125 68.511719 C 230.234375 63.613281 199.304688 46.988281 164.550781 43.753906 C 148.589844 42.265625 132.207031 43.410156 116.195312 43.410156 C 114.617188 43.410156 113.503906 44.125 112.824219 45.117188 C 111.710938 46.316406 111.300781 48.0625 112.488281 49.875 C 116.765625 56.394531 121.046875 62.917969 125.320312 69.4375 C 124.785156 70.640625 124.253906 71.839844 123.71875 73.042969 C 122.84375 75.015625 123.085938 76.550781 124.386719 78.242188 C 130.839844 86.582031 137.28125 94.921875 143.726562 103.261719 C 144.636719 104.4375 145.542969 105.609375 146.449219 106.785156 C 146.441406 106.878906 146.4375 106.953125 146.429688 107.0625 C 146.253906 113.066406 148.121094 118.945312 150.925781 124.175781 C 159.804688 140.738281 182.835938 142.28125 193.054688 158.113281 C 195.511719 161.914062 195.585938 166.617188 192.484375 169.125 C 191.183594 170.179688 190.96875 171.945312 191.480469 173.46875 C 191.25 173.488281 191.03125 173.5 190.789062 173.554688 C 185.230469 174.816406 176.933594 175.296875 172.195312 178.632812 C 169.839844 180.289062 169.402344 183.175781 171.332031 185.375 C 173.054688 187.347656 178.761719 188.945312 181.203125 190.457031 C 187.332031 194.234375 193.21875 198.425781 199.070312 202.613281 C 202.152344 204.816406 206.65625 209.738281 210.535156 210.53125 C 213.828125 211.210938 217.179688 210.878906 220.441406 210.074219 C 220.609375 211.523438 221.042969 212.953125 221.902344 214.324219 C 224.5 218.46875 233.574219 219.054688 237.769531 221.414062 C 246.695312 226.453125 249.664062 234.121094 248.710938 243.964844 C 248.011719 251.160156 248.441406 259.246094 251.386719 265.953125 C 254.050781 272.027344 264.589844 274.789062 269.925781 277.804688 C 279.859375 283.40625 298.589844 292.382812 301.429688 304.636719 C 304.792969 319.148438 317.773438 320.082031 327.789062 310.796875 C 331.882812 306.996094 336.507812 298.769531 331.148438 293.933594 C 323.957031 287.425781 321.8125 278.253906 315.519531 271.167969 C 311.148438 266.257812 304.429688 269.0625 299.71875 271.589844 C 298.472656 272.253906 297.851562 272.710938 297.570312 272.984375 C 297.613281 272.796875 297.597656 272.53125 297.410156 272.167969 C 296.792969 271.011719 296.558594 269.488281 296.25 268.234375 C 295.429688 264.839844 295.175781 261.316406 294.945312 257.84375 C 294.765625 255.15625 295.316406 251.722656 293.886719 249.3125 C 290.636719 243.84375 287.605469 238.234375 284.792969 232.527344 C 282.195312 227.257812 281.496094 221.957031 279.511719 216.675781 C 277.484375 211.289062 273.1875 206.648438 269.488281 202.351562 C 260.703125 192.140625 248.152344 183.710938 241.339844 172.078125 C 239.164062 168.359375 238.003906 163.722656 235.308594 160.382812 C 232.65625 157.101562 229.972656 153.847656 227.28125 150.605469 C 218.277344 139.769531 209.164062 128.886719 199.097656 119.015625 C 194.632812 114.648438 189.050781 112.710938 190.640625 105.570312 C 192.128906 98.839844 192.875 92.96875 188.242188 87.300781 C 184.625 82.878906 185.128906 81.597656 187.128906 77.363281 C 186.929688 77.792969 189.238281 72.953125 188.554688 73.035156 C 191.464844 72.691406 195.839844 76.203125 198.21875 77.589844 C 200.875 79.148438 203.507812 80.582031 206.34375 81.765625 C 207.246094 82.140625 208.238281 82.316406 209.203125 82.515625 C 209.347656 82.605469 209.648438 82.792969 210.023438 83.140625 C 213.132812 86.003906 217.285156 87.40625 220.480469 90.160156 C 221.398438 90.957031 220.078125 96.726562 220.171875 97.902344 C 220.554688 102.753906 223.703125 107.53125 226.070312 111.617188 C 231.011719 120.136719 236.710938 128.277344 242.546875 136.226562 C 240.355469 140.535156 246.429688 146.789062 252.386719 148.058594 C 257.503906 155.316406 262.738281 162.488281 268.199219 169.488281 C 274.597656 177.675781 282.109375 182.070312 292.09375 182.613281 C 293.691406 192.28125 299.402344 200.574219 309.164062 200.453125 C 310 206.359375 312.667969 211.734375 318.746094 214.082031 C 320.074219 214.589844 321.671875 213.933594 323.042969 213.847656 C 328.042969 213.550781 330.125 217.382812 331.15625 221.527344 C 325.175781 227.566406 325.078125 234.742188 330.558594 241.820312 C 334.15625 246.46875 339.628906 246.738281 344.949219 248.300781 C 349.84375 249.730469 354.703125 251.402344 359.089844 254.011719 C 362.640625 256.109375 358.023438 262.390625 358.238281 265.578125 C 358.753906 273.292969 365.9375 272.554688 371.375 275.40625 C 387.8125 284.011719 403.507812 297.871094 415.421875 311.976562 C 421.148438 318.753906 420.324219 326.382812 424.082031 334.171875 C 427.121094 340.484375 432.445312 345.53125 434.988281 352.105469 C 436.847656 356.90625 432.839844 363.582031 429.78125 367.15625 C 427.234375 370.136719 429.570312 375.914062 433.960938 374.335938 C 434.859375 374.007812 435.71875 373.8125 436.6875 373.710938 C 439.78125 372.277344 440.257812 372.203125 438.128906 373.492188 C 437.101562 374.066406 436.042969 374.566406 434.941406 374.972656 C 432.78125 375.839844 430.496094 376.496094 428.234375 377.054688 C 426.53125 377.476562 424.894531 379.355469 425.082031 381.195312 C 425.707031 387.273438 429.054688 392.914062 432.707031 397.644531 C 436.632812 402.730469 441.410156 406.867188 446.546875 410.691406 C 450.230469 413.433594 454.238281 415.714844 458.277344 417.890625 C 462.230469 420.007812 471.386719 421.882812 474.144531 425.445312 C 484.949219 439.441406 500.3125 448.980469 517.171875 453.90625 C 522.308594 455.402344 527.628906 456.269531 532.945312 456.777344 C 534.121094 456.894531 535.292969 456.945312 536.46875 456.980469 C 562.597656 468.582031 588.914062 479.785156 615.460938 490.394531 C 633.011719 497.414062 650.785156 504.640625 669.160156 509.210938 C 680.289062 511.964844 693.847656 514.25 704.683594 509.195312 C 708.691406 507.332031 711.96875 503.410156 715.753906 501.136719 C 729.117188 493.097656 740.605469 495.695312 752.296875 504.175781 C 768.230469 515.730469 782.199219 530.949219 795.011719 545.816406 C 797.664062 548.898438 802.09375 546.1875 802.339844 542.785156 C 802.9375 534.726562 801.835938 525.976562 804.355469 518.265625 C 806.101562 512.917969 809.308594 507.753906 812.609375 503.070312 C 819.46875 503.070312 826.328125 503.070312 833.1875 503.070312 C 837.558594 503.070312 848.335938 505.242188 851.34375 500.863281 C 858.550781 490.386719 842.207031 476.277344 831.570312 468.265625 C 834.671875 466.011719 836.550781 462.722656 836.492188 458.703125 C 853.289062 459.636719 871.277344 459.699219 887.230469 454.785156 C 889.171875 454.1875 890.238281 452.617188 890.386719 450.640625 C 890.941406 443.085938 899.695312 434.554688 906.660156 429.636719 C 906.964844 430.898438 907.304688 432.15625 907.6875 433.402344 C 908.984375 437.636719 910.621094 442.171875 913.085938 445.875 C 914.621094 448.175781 918.734375 450.4375 921.003906 447.53125 C 923.378906 444.492188 922.757812 440.226562 923.347656 436.554688 C 924.898438 426.855469 927.496094 417.246094 930.125 407.777344 C 930.644531 405.925781 929.808594 403.898438 928.152344 402.933594 C 925 401.089844 928.085938 398.195312 929.703125 396.605469 C 932.382812 393.996094 931.375 389.480469 934.253906 386.441406 C 939.617188 380.785156 945.269531 377.558594 948.945312 370.296875 C 953.886719 360.554688 950.273438 348.90625 941.21875 343.109375 " fill-opacity="1" fill-rule="nonzero"/></g></svg>